<svg width="1948" height="1948" viewBox="0 0 1948 1948" fill="none" xmlns="http://www.w3.org/2000/svg">
<path d="M1186.27 450.813C1102.34 450.813 1035.89 464.525 986.618 492.251C926.345 526.154 882.045 577.688 854.771 635.851C846.333 653.933 839.552 672.618 834.58 691.905H1491.86C1523.35 692.056 1532.39 687.535 1547.61 662.371L1669.81 450.813L1186.27 450.813Z" fill="url(#paint0_linear_902_3841)"/>
<path d="M519.503 869.409C561.393 942.037 606.447 992.817 655.268 1021.6C714.787 1056.86 781.539 1069.51 845.579 1064.09C865.319 1062.28 885.058 1058.82 904.195 1053.54L575.557 484.265C560.037 456.991 551.448 451.416 522.215 450.813H277.809L519.503 869.409Z" fill="url(#paint1_linear_902_3841)"/>
<path d="M1215.5 1237.68C1257.39 1165.05 1278.79 1100.71 1279.39 1043.9C1280.15 974.735 1257.7 910.696 1220.93 857.957C1209.48 841.683 1196.67 826.464 1182.5 812.451L853.867 1381.73C837.894 1408.85 837.442 1418.95 851.607 1444.71L973.81 1656.27L1215.5 1237.68Z" fill="url(#paint2_linear_902_3841)"/>
<defs>
<linearGradient id="paint0_linear_902_3841" x1="1661.37" y1="571.363" x2="846.649" y2="571.363" gradientUnits="userSpaceOnUse">
<stop stop-color="#46F0D7"/>
<stop offset="0.17" stop-color="#42EAD8"/>
<stop offset="0.39" stop-color="#36DADA"/>
<stop offset="0.64" stop-color="#24BFDE"/>
<stop offset="0.91" stop-color="#0999E4"/>
<stop offset="1" stop-color="#008CE6"/>
</linearGradient>
<linearGradient id="paint1_linear_902_3841" x1="386.096" y1="398.046" x2="793.458" y2="1103.6" gradientUnits="userSpaceOnUse">
<stop stop-color="#46F0D7"/>
<stop offset="0.17" stop-color="#42EAD8"/>
<stop offset="0.39" stop-color="#36DADA"/>
<stop offset="0.64" stop-color="#24BFDE"/>
<stop offset="0.91" stop-color="#0999E4"/>
<stop offset="1" stop-color="#008CE6"/>
</linearGradient>
<linearGradient id="paint2_linear_902_3841" x1="873.896" y1="1588.88" x2="1281.26" y2="883.332" gradientUnits="userSpaceOnUse">
<stop stop-color="#46F0D7"/>
<stop offset="0.17" stop-color="#42EAD8"/>
<stop offset="0.39" stop-color="#36DADA"/>
<stop offset="0.64" stop-color="#24BFDE"/>
<stop offset="0.91" stop-color="#0999E4"/>
<stop offset="1" stop-color="#008CE6"/>
</linearGradient>
</defs>
</svg>
